<mxfile host="app.diagrams.net" modified="2023-12-16T07:27:22.969Z" agent="Mozilla/5.0 (Macintosh; Intel Mac OS X 10_15_7) AppleWebKit/537.36 (KHTML, like Gecko) Chrome/120.0.0.0 Safari/537.36" version="22.1.11" etag="xopxhC3KYr7_LE99MGbU" type="github">
  <diagram name="第 1 页" id="cBiy4t_0Q6IqQLrx1vpL">
    <mxGraphModel>
      <root>
        <mxCell id="0" />
        <mxCell id="1" parent="0" />
      </root>
    </mxGraphModel>
  </diagram>
</mxfile>
